<svg width="47" height="45" viewBox="0 0 47 45" fill="none" xmlns="http://www.w3.org/2000/svg">
<path d="M46 22.5C46 34.3336 35.9678 44 23.5 44C11.0322 44 1 34.3336 1 22.5C1 10.6664 11.0322 1 23.5 1C35.9678 1 46 10.6664 46 22.5Z" stroke="white" stroke-width="2"/>
<path d="M20.5128 27.8409V27.6918C20.5294 26.1091 20.6951 24.8497 21.0099 23.9134C21.3248 22.977 21.7723 22.2189 22.3523 21.6388C22.9323 21.0588 23.6283 20.5244 24.4403 20.0355C24.9292 19.7372 25.3684 19.3851 25.7578 18.979C26.1473 18.5647 26.4538 18.0883 26.6776 17.5497C26.9096 17.0111 27.0256 16.4145 27.0256 15.7599C27.0256 14.9479 26.835 14.2436 26.4538 13.647C26.0727 13.0504 25.5631 12.5906 24.9251 12.2674C24.2871 11.9442 23.5786 11.7827 22.7997 11.7827C22.1203 11.7827 21.4657 11.9235 20.8359 12.2053C20.2062 12.487 19.68 12.9303 19.2575 13.5352C18.8349 14.14 18.5904 14.9313 18.5241 15.9091H15.392C15.4583 14.5005 15.8229 13.2949 16.4858 12.2923C17.157 11.2897 18.0394 10.5232 19.1332 9.9929C20.2352 9.46259 21.4574 9.19744 22.7997 9.19744C24.258 9.19744 25.5258 9.48745 26.603 10.0675C27.6884 10.6475 28.5253 11.4429 29.1136 12.4538C29.7102 13.4647 30.0085 14.6165 30.0085 15.9091C30.0085 16.8205 29.8677 17.645 29.5859 18.3825C29.3125 19.1199 28.9148 19.7786 28.3928 20.3587C27.879 20.9387 27.2576 21.4524 26.5284 21.8999C25.7992 22.3556 25.2151 22.8362 24.7759 23.3416C24.3368 23.8388 24.0178 24.4312 23.8189 25.119C23.62 25.8067 23.5123 26.6643 23.4957 27.6918V27.8409H20.5128ZM22.1037 35.1989C21.4905 35.1989 20.9644 34.9793 20.5252 34.5401C20.0861 34.101 19.8665 33.5748 19.8665 32.9616C19.8665 32.3485 20.0861 31.8223 20.5252 31.3832C20.9644 30.944 21.4905 30.7244 22.1037 30.7244C22.7169 30.7244 23.243 30.944 23.6822 31.3832C24.1213 31.8223 24.3409 32.3485 24.3409 32.9616C24.3409 33.3677 24.2373 33.7405 24.0302 34.0803C23.8313 34.42 23.562 34.6934 23.2223 34.9006C22.8909 35.0994 22.518 35.1989 22.1037 35.1989Z" fill="white"/>
</svg>
